%TF.GenerationSoftware,KiCad,Pcbnew,9.0.6*%
%TF.CreationDate,2025-12-22T16:44:40+00:00*%
%TF.ProjectId,MotorizationKit,4d6f746f-7269-47a6-9174-696f6e4b6974,rev?*%
%TF.SameCoordinates,Original*%
%TF.FileFunction,Soldermask,Top*%
%TF.FilePolarity,Negative*%
%FSLAX46Y46*%
G04 Gerber Fmt 4.6, Leading zero omitted, Abs format (unit mm)*
G04 Created by KiCad (PCBNEW 9.0.6) date 2025-12-22 16:44:40*
%MOMM*%
%LPD*%
G01*
G04 APERTURE LIST*
G04 Aperture macros list*
%AMRoundRect*
0 Rectangle with rounded corners*
0 $1 Rounding radius*
0 $2 $3 $4 $5 $6 $7 $8 $9 X,Y pos of 4 corners*
0 Add a 4 corners polygon primitive as box body*
4,1,4,$2,$3,$4,$5,$6,$7,$8,$9,$2,$3,0*
0 Add four circle primitives for the rounded corners*
1,1,$1+$1,$2,$3*
1,1,$1+$1,$4,$5*
1,1,$1+$1,$6,$7*
1,1,$1+$1,$8,$9*
0 Add four rect primitives between the rounded corners*
20,1,$1+$1,$2,$3,$4,$5,0*
20,1,$1+$1,$4,$5,$6,$7,0*
20,1,$1+$1,$6,$7,$8,$9,0*
20,1,$1+$1,$8,$9,$2,$3,0*%
G04 Aperture macros list end*
%ADD10R,1.700000X1.700000*%
%ADD11C,1.700000*%
%ADD12RoundRect,0.250000X0.625000X-0.350000X0.625000X0.350000X-0.625000X0.350000X-0.625000X-0.350000X0*%
%ADD13O,1.750000X1.200000*%
%ADD14R,1.600000X1.600000*%
%ADD15O,1.600000X1.600000*%
G04 APERTURE END LIST*
D10*
%TO.C,ServoL1*%
X140716000Y-119888000D03*
D11*
X140716000Y-117348000D03*
X140716000Y-114808000D03*
%TD*%
D12*
%TO.C,LedL1*%
X166878000Y-129508000D03*
D13*
X166878000Y-127508000D03*
%TD*%
D12*
%TO.C,PWR1*%
X166878000Y-107918000D03*
D13*
X166878000Y-105918000D03*
%TD*%
D12*
%TO.C,Switch1*%
X166968000Y-98536000D03*
D13*
X166968000Y-96536000D03*
%TD*%
D12*
%TO.C,LedR1*%
X166878000Y-120364000D03*
D13*
X166878000Y-118364000D03*
%TD*%
D14*
%TO.C,A1*%
X146304000Y-95504000D03*
D15*
X146304000Y-98044000D03*
X146304000Y-100584000D03*
X146304000Y-103124000D03*
X146304000Y-105664000D03*
X146304000Y-108204000D03*
X146304000Y-110744000D03*
X146304000Y-113284000D03*
X146304000Y-115824000D03*
X146304000Y-118364000D03*
X146304000Y-120904000D03*
X146304000Y-123444000D03*
X146304000Y-125984000D03*
X146304000Y-128524000D03*
X146304000Y-131064000D03*
X161544000Y-131064000D03*
X161544000Y-128524000D03*
X161544000Y-125984000D03*
X161544000Y-123444000D03*
X161544000Y-120904000D03*
X161544000Y-118364000D03*
X161544000Y-115824000D03*
X161544000Y-113284000D03*
X161544000Y-110744000D03*
X161544000Y-108204000D03*
X161544000Y-105664000D03*
X161544000Y-103124000D03*
X161544000Y-100584000D03*
X161544000Y-98044000D03*
X161544000Y-95504000D03*
%TD*%
D10*
%TO.C,ServoR1*%
X140716000Y-108204000D03*
D11*
X140716000Y-105664000D03*
X140716000Y-103124000D03*
%TD*%
M02*
