%TF.GenerationSoftware,KiCad,Pcbnew,9.0.6*%
%TF.CreationDate,2025-12-22T16:44:40+00:00*%
%TF.ProjectId,MotorizationKit,4d6f746f-7269-47a6-9174-696f6e4b6974,rev?*%
%TF.SameCoordinates,Original*%
%TF.FileFunction,Legend,Top*%
%TF.FilePolarity,Positive*%
%FSLAX46Y46*%
G04 Gerber Fmt 4.6, Leading zero omitted, Abs format (unit mm)*
G04 Created by KiCad (PCBNEW 9.0.6) date 2025-12-22 16:44:40*
%MOMM*%
%LPD*%
G01*
G04 APERTURE LIST*
%ADD10C,0.150000*%
%ADD11C,0.120000*%
G04 APERTURE END LIST*
D10*
X137977904Y-122675200D02*
X138120761Y-122722819D01*
X138120761Y-122722819D02*
X138358856Y-122722819D01*
X138358856Y-122722819D02*
X138454094Y-122675200D01*
X138454094Y-122675200D02*
X138501713Y-122627580D01*
X138501713Y-122627580D02*
X138549332Y-122532342D01*
X138549332Y-122532342D02*
X138549332Y-122437104D01*
X138549332Y-122437104D02*
X138501713Y-122341866D01*
X138501713Y-122341866D02*
X138454094Y-122294247D01*
X138454094Y-122294247D02*
X138358856Y-122246628D01*
X138358856Y-122246628D02*
X138168380Y-122199009D01*
X138168380Y-122199009D02*
X138073142Y-122151390D01*
X138073142Y-122151390D02*
X138025523Y-122103771D01*
X138025523Y-122103771D02*
X137977904Y-122008533D01*
X137977904Y-122008533D02*
X137977904Y-121913295D01*
X137977904Y-121913295D02*
X138025523Y-121818057D01*
X138025523Y-121818057D02*
X138073142Y-121770438D01*
X138073142Y-121770438D02*
X138168380Y-121722819D01*
X138168380Y-121722819D02*
X138406475Y-121722819D01*
X138406475Y-121722819D02*
X138549332Y-121770438D01*
X139358856Y-122675200D02*
X139263618Y-122722819D01*
X139263618Y-122722819D02*
X139073142Y-122722819D01*
X139073142Y-122722819D02*
X138977904Y-122675200D01*
X138977904Y-122675200D02*
X138930285Y-122579961D01*
X138930285Y-122579961D02*
X138930285Y-122199009D01*
X138930285Y-122199009D02*
X138977904Y-122103771D01*
X138977904Y-122103771D02*
X139073142Y-122056152D01*
X139073142Y-122056152D02*
X139263618Y-122056152D01*
X139263618Y-122056152D02*
X139358856Y-122103771D01*
X139358856Y-122103771D02*
X139406475Y-122199009D01*
X139406475Y-122199009D02*
X139406475Y-122294247D01*
X139406475Y-122294247D02*
X138930285Y-122389485D01*
X139835047Y-122722819D02*
X139835047Y-122056152D01*
X139835047Y-122246628D02*
X139882666Y-122151390D01*
X139882666Y-122151390D02*
X139930285Y-122103771D01*
X139930285Y-122103771D02*
X140025523Y-122056152D01*
X140025523Y-122056152D02*
X140120761Y-122056152D01*
X140358857Y-122056152D02*
X140596952Y-122722819D01*
X140596952Y-122722819D02*
X140835047Y-122056152D01*
X141358857Y-122722819D02*
X141263619Y-122675200D01*
X141263619Y-122675200D02*
X141216000Y-122627580D01*
X141216000Y-122627580D02*
X141168381Y-122532342D01*
X141168381Y-122532342D02*
X141168381Y-122246628D01*
X141168381Y-122246628D02*
X141216000Y-122151390D01*
X141216000Y-122151390D02*
X141263619Y-122103771D01*
X141263619Y-122103771D02*
X141358857Y-122056152D01*
X141358857Y-122056152D02*
X141501714Y-122056152D01*
X141501714Y-122056152D02*
X141596952Y-122103771D01*
X141596952Y-122103771D02*
X141644571Y-122151390D01*
X141644571Y-122151390D02*
X141692190Y-122246628D01*
X141692190Y-122246628D02*
X141692190Y-122532342D01*
X141692190Y-122532342D02*
X141644571Y-122627580D01*
X141644571Y-122627580D02*
X141596952Y-122675200D01*
X141596952Y-122675200D02*
X141501714Y-122722819D01*
X141501714Y-122722819D02*
X141358857Y-122722819D01*
X142596952Y-122722819D02*
X142120762Y-122722819D01*
X142120762Y-122722819D02*
X142120762Y-121722819D01*
X143454095Y-122722819D02*
X142882667Y-122722819D01*
X143168381Y-122722819D02*
X143168381Y-121722819D01*
X143168381Y-121722819D02*
X143073143Y-121865676D01*
X143073143Y-121865676D02*
X142977905Y-121960914D01*
X142977905Y-121960914D02*
X142882667Y-122008533D01*
X164782819Y-129960381D02*
X164782819Y-130436571D01*
X164782819Y-130436571D02*
X163782819Y-130436571D01*
X164735200Y-129246095D02*
X164782819Y-129341333D01*
X164782819Y-129341333D02*
X164782819Y-129531809D01*
X164782819Y-129531809D02*
X164735200Y-129627047D01*
X164735200Y-129627047D02*
X164639961Y-129674666D01*
X164639961Y-129674666D02*
X164259009Y-129674666D01*
X164259009Y-129674666D02*
X164163771Y-129627047D01*
X164163771Y-129627047D02*
X164116152Y-129531809D01*
X164116152Y-129531809D02*
X164116152Y-129341333D01*
X164116152Y-129341333D02*
X164163771Y-129246095D01*
X164163771Y-129246095D02*
X164259009Y-129198476D01*
X164259009Y-129198476D02*
X164354247Y-129198476D01*
X164354247Y-129198476D02*
X164449485Y-129674666D01*
X164782819Y-128341333D02*
X163782819Y-128341333D01*
X164735200Y-128341333D02*
X164782819Y-128436571D01*
X164782819Y-128436571D02*
X164782819Y-128627047D01*
X164782819Y-128627047D02*
X164735200Y-128722285D01*
X164735200Y-128722285D02*
X164687580Y-128769904D01*
X164687580Y-128769904D02*
X164592342Y-128817523D01*
X164592342Y-128817523D02*
X164306628Y-128817523D01*
X164306628Y-128817523D02*
X164211390Y-128769904D01*
X164211390Y-128769904D02*
X164163771Y-128722285D01*
X164163771Y-128722285D02*
X164116152Y-128627047D01*
X164116152Y-128627047D02*
X164116152Y-128436571D01*
X164116152Y-128436571D02*
X164163771Y-128341333D01*
X164782819Y-127388952D02*
X164782819Y-127865142D01*
X164782819Y-127865142D02*
X163782819Y-127865142D01*
X164782819Y-126531809D02*
X164782819Y-127103237D01*
X164782819Y-126817523D02*
X163782819Y-126817523D01*
X163782819Y-126817523D02*
X163925676Y-126912761D01*
X163925676Y-126912761D02*
X164020914Y-127007999D01*
X164020914Y-127007999D02*
X164068533Y-127103237D01*
X164782819Y-108727523D02*
X163782819Y-108727523D01*
X163782819Y-108727523D02*
X163782819Y-108346571D01*
X163782819Y-108346571D02*
X163830438Y-108251333D01*
X163830438Y-108251333D02*
X163878057Y-108203714D01*
X163878057Y-108203714D02*
X163973295Y-108156095D01*
X163973295Y-108156095D02*
X164116152Y-108156095D01*
X164116152Y-108156095D02*
X164211390Y-108203714D01*
X164211390Y-108203714D02*
X164259009Y-108251333D01*
X164259009Y-108251333D02*
X164306628Y-108346571D01*
X164306628Y-108346571D02*
X164306628Y-108727523D01*
X163782819Y-107822761D02*
X164782819Y-107584666D01*
X164782819Y-107584666D02*
X164068533Y-107394190D01*
X164068533Y-107394190D02*
X164782819Y-107203714D01*
X164782819Y-107203714D02*
X163782819Y-106965619D01*
X164782819Y-106013238D02*
X164306628Y-106346571D01*
X164782819Y-106584666D02*
X163782819Y-106584666D01*
X163782819Y-106584666D02*
X163782819Y-106203714D01*
X163782819Y-106203714D02*
X163830438Y-106108476D01*
X163830438Y-106108476D02*
X163878057Y-106060857D01*
X163878057Y-106060857D02*
X163973295Y-106013238D01*
X163973295Y-106013238D02*
X164116152Y-106013238D01*
X164116152Y-106013238D02*
X164211390Y-106060857D01*
X164211390Y-106060857D02*
X164259009Y-106108476D01*
X164259009Y-106108476D02*
X164306628Y-106203714D01*
X164306628Y-106203714D02*
X164306628Y-106584666D01*
X164782819Y-105060857D02*
X164782819Y-105632285D01*
X164782819Y-105346571D02*
X163782819Y-105346571D01*
X163782819Y-105346571D02*
X163925676Y-105441809D01*
X163925676Y-105441809D02*
X164020914Y-105537047D01*
X164020914Y-105537047D02*
X164068533Y-105632285D01*
X164825200Y-100226475D02*
X164872819Y-100083618D01*
X164872819Y-100083618D02*
X164872819Y-99845523D01*
X164872819Y-99845523D02*
X164825200Y-99750285D01*
X164825200Y-99750285D02*
X164777580Y-99702666D01*
X164777580Y-99702666D02*
X164682342Y-99655047D01*
X164682342Y-99655047D02*
X164587104Y-99655047D01*
X164587104Y-99655047D02*
X164491866Y-99702666D01*
X164491866Y-99702666D02*
X164444247Y-99750285D01*
X164444247Y-99750285D02*
X164396628Y-99845523D01*
X164396628Y-99845523D02*
X164349009Y-100035999D01*
X164349009Y-100035999D02*
X164301390Y-100131237D01*
X164301390Y-100131237D02*
X164253771Y-100178856D01*
X164253771Y-100178856D02*
X164158533Y-100226475D01*
X164158533Y-100226475D02*
X164063295Y-100226475D01*
X164063295Y-100226475D02*
X163968057Y-100178856D01*
X163968057Y-100178856D02*
X163920438Y-100131237D01*
X163920438Y-100131237D02*
X163872819Y-100035999D01*
X163872819Y-100035999D02*
X163872819Y-99797904D01*
X163872819Y-99797904D02*
X163920438Y-99655047D01*
X164206152Y-99321713D02*
X164872819Y-99131237D01*
X164872819Y-99131237D02*
X164396628Y-98940761D01*
X164396628Y-98940761D02*
X164872819Y-98750285D01*
X164872819Y-98750285D02*
X164206152Y-98559809D01*
X164872819Y-98178856D02*
X164206152Y-98178856D01*
X163872819Y-98178856D02*
X163920438Y-98226475D01*
X163920438Y-98226475D02*
X163968057Y-98178856D01*
X163968057Y-98178856D02*
X163920438Y-98131237D01*
X163920438Y-98131237D02*
X163872819Y-98178856D01*
X163872819Y-98178856D02*
X163968057Y-98178856D01*
X164206152Y-97845523D02*
X164206152Y-97464571D01*
X163872819Y-97702666D02*
X164729961Y-97702666D01*
X164729961Y-97702666D02*
X164825200Y-97655047D01*
X164825200Y-97655047D02*
X164872819Y-97559809D01*
X164872819Y-97559809D02*
X164872819Y-97464571D01*
X164825200Y-96702666D02*
X164872819Y-96797904D01*
X164872819Y-96797904D02*
X164872819Y-96988380D01*
X164872819Y-96988380D02*
X164825200Y-97083618D01*
X164825200Y-97083618D02*
X164777580Y-97131237D01*
X164777580Y-97131237D02*
X164682342Y-97178856D01*
X164682342Y-97178856D02*
X164396628Y-97178856D01*
X164396628Y-97178856D02*
X164301390Y-97131237D01*
X164301390Y-97131237D02*
X164253771Y-97083618D01*
X164253771Y-97083618D02*
X164206152Y-96988380D01*
X164206152Y-96988380D02*
X164206152Y-96797904D01*
X164206152Y-96797904D02*
X164253771Y-96702666D01*
X164872819Y-96274094D02*
X163872819Y-96274094D01*
X164872819Y-95845523D02*
X164349009Y-95845523D01*
X164349009Y-95845523D02*
X164253771Y-95893142D01*
X164253771Y-95893142D02*
X164206152Y-95988380D01*
X164206152Y-95988380D02*
X164206152Y-96131237D01*
X164206152Y-96131237D02*
X164253771Y-96226475D01*
X164253771Y-96226475D02*
X164301390Y-96274094D01*
X164872819Y-94845523D02*
X164872819Y-95416951D01*
X164872819Y-95131237D02*
X163872819Y-95131237D01*
X163872819Y-95131237D02*
X164015676Y-95226475D01*
X164015676Y-95226475D02*
X164110914Y-95321713D01*
X164110914Y-95321713D02*
X164158533Y-95416951D01*
X164782819Y-120911619D02*
X164782819Y-121387809D01*
X164782819Y-121387809D02*
X163782819Y-121387809D01*
X164735200Y-120197333D02*
X164782819Y-120292571D01*
X164782819Y-120292571D02*
X164782819Y-120483047D01*
X164782819Y-120483047D02*
X164735200Y-120578285D01*
X164735200Y-120578285D02*
X164639961Y-120625904D01*
X164639961Y-120625904D02*
X164259009Y-120625904D01*
X164259009Y-120625904D02*
X164163771Y-120578285D01*
X164163771Y-120578285D02*
X164116152Y-120483047D01*
X164116152Y-120483047D02*
X164116152Y-120292571D01*
X164116152Y-120292571D02*
X164163771Y-120197333D01*
X164163771Y-120197333D02*
X164259009Y-120149714D01*
X164259009Y-120149714D02*
X164354247Y-120149714D01*
X164354247Y-120149714D02*
X164449485Y-120625904D01*
X164782819Y-119292571D02*
X163782819Y-119292571D01*
X164735200Y-119292571D02*
X164782819Y-119387809D01*
X164782819Y-119387809D02*
X164782819Y-119578285D01*
X164782819Y-119578285D02*
X164735200Y-119673523D01*
X164735200Y-119673523D02*
X164687580Y-119721142D01*
X164687580Y-119721142D02*
X164592342Y-119768761D01*
X164592342Y-119768761D02*
X164306628Y-119768761D01*
X164306628Y-119768761D02*
X164211390Y-119721142D01*
X164211390Y-119721142D02*
X164163771Y-119673523D01*
X164163771Y-119673523D02*
X164116152Y-119578285D01*
X164116152Y-119578285D02*
X164116152Y-119387809D01*
X164116152Y-119387809D02*
X164163771Y-119292571D01*
X164782819Y-118244952D02*
X164306628Y-118578285D01*
X164782819Y-118816380D02*
X163782819Y-118816380D01*
X163782819Y-118816380D02*
X163782819Y-118435428D01*
X163782819Y-118435428D02*
X163830438Y-118340190D01*
X163830438Y-118340190D02*
X163878057Y-118292571D01*
X163878057Y-118292571D02*
X163973295Y-118244952D01*
X163973295Y-118244952D02*
X164116152Y-118244952D01*
X164116152Y-118244952D02*
X164211390Y-118292571D01*
X164211390Y-118292571D02*
X164259009Y-118340190D01*
X164259009Y-118340190D02*
X164306628Y-118435428D01*
X164306628Y-118435428D02*
X164306628Y-118816380D01*
X164782819Y-117292571D02*
X164782819Y-117863999D01*
X164782819Y-117578285D02*
X163782819Y-117578285D01*
X163782819Y-117578285D02*
X163925676Y-117673523D01*
X163925676Y-117673523D02*
X164020914Y-117768761D01*
X164020914Y-117768761D02*
X164068533Y-117863999D01*
X153209714Y-90593104D02*
X153685904Y-90593104D01*
X153114476Y-90878819D02*
X153447809Y-89878819D01*
X153447809Y-89878819D02*
X153781142Y-90878819D01*
X154638285Y-90878819D02*
X154066857Y-90878819D01*
X154352571Y-90878819D02*
X154352571Y-89878819D01*
X154352571Y-89878819D02*
X154257333Y-90021676D01*
X154257333Y-90021676D02*
X154162095Y-90116914D01*
X154162095Y-90116914D02*
X154066857Y-90164533D01*
X152662095Y-130518819D02*
X152662095Y-131328342D01*
X152662095Y-131328342D02*
X152709714Y-131423580D01*
X152709714Y-131423580D02*
X152757333Y-131471200D01*
X152757333Y-131471200D02*
X152852571Y-131518819D01*
X152852571Y-131518819D02*
X153043047Y-131518819D01*
X153043047Y-131518819D02*
X153138285Y-131471200D01*
X153138285Y-131471200D02*
X153185904Y-131423580D01*
X153185904Y-131423580D02*
X153233523Y-131328342D01*
X153233523Y-131328342D02*
X153233523Y-130518819D01*
X153662095Y-131471200D02*
X153804952Y-131518819D01*
X153804952Y-131518819D02*
X154043047Y-131518819D01*
X154043047Y-131518819D02*
X154138285Y-131471200D01*
X154138285Y-131471200D02*
X154185904Y-131423580D01*
X154185904Y-131423580D02*
X154233523Y-131328342D01*
X154233523Y-131328342D02*
X154233523Y-131233104D01*
X154233523Y-131233104D02*
X154185904Y-131137866D01*
X154185904Y-131137866D02*
X154138285Y-131090247D01*
X154138285Y-131090247D02*
X154043047Y-131042628D01*
X154043047Y-131042628D02*
X153852571Y-130995009D01*
X153852571Y-130995009D02*
X153757333Y-130947390D01*
X153757333Y-130947390D02*
X153709714Y-130899771D01*
X153709714Y-130899771D02*
X153662095Y-130804533D01*
X153662095Y-130804533D02*
X153662095Y-130709295D01*
X153662095Y-130709295D02*
X153709714Y-130614057D01*
X153709714Y-130614057D02*
X153757333Y-130566438D01*
X153757333Y-130566438D02*
X153852571Y-130518819D01*
X153852571Y-130518819D02*
X154090666Y-130518819D01*
X154090666Y-130518819D02*
X154233523Y-130566438D01*
X154995428Y-130995009D02*
X155138285Y-131042628D01*
X155138285Y-131042628D02*
X155185904Y-131090247D01*
X155185904Y-131090247D02*
X155233523Y-131185485D01*
X155233523Y-131185485D02*
X155233523Y-131328342D01*
X155233523Y-131328342D02*
X155185904Y-131423580D01*
X155185904Y-131423580D02*
X155138285Y-131471200D01*
X155138285Y-131471200D02*
X155043047Y-131518819D01*
X155043047Y-131518819D02*
X154662095Y-131518819D01*
X154662095Y-131518819D02*
X154662095Y-130518819D01*
X154662095Y-130518819D02*
X154995428Y-130518819D01*
X154995428Y-130518819D02*
X155090666Y-130566438D01*
X155090666Y-130566438D02*
X155138285Y-130614057D01*
X155138285Y-130614057D02*
X155185904Y-130709295D01*
X155185904Y-130709295D02*
X155185904Y-130804533D01*
X155185904Y-130804533D02*
X155138285Y-130899771D01*
X155138285Y-130899771D02*
X155090666Y-130947390D01*
X155090666Y-130947390D02*
X154995428Y-130995009D01*
X154995428Y-130995009D02*
X154662095Y-130995009D01*
X137882666Y-110991200D02*
X138025523Y-111038819D01*
X138025523Y-111038819D02*
X138263618Y-111038819D01*
X138263618Y-111038819D02*
X138358856Y-110991200D01*
X138358856Y-110991200D02*
X138406475Y-110943580D01*
X138406475Y-110943580D02*
X138454094Y-110848342D01*
X138454094Y-110848342D02*
X138454094Y-110753104D01*
X138454094Y-110753104D02*
X138406475Y-110657866D01*
X138406475Y-110657866D02*
X138358856Y-110610247D01*
X138358856Y-110610247D02*
X138263618Y-110562628D01*
X138263618Y-110562628D02*
X138073142Y-110515009D01*
X138073142Y-110515009D02*
X137977904Y-110467390D01*
X137977904Y-110467390D02*
X137930285Y-110419771D01*
X137930285Y-110419771D02*
X137882666Y-110324533D01*
X137882666Y-110324533D02*
X137882666Y-110229295D01*
X137882666Y-110229295D02*
X137930285Y-110134057D01*
X137930285Y-110134057D02*
X137977904Y-110086438D01*
X137977904Y-110086438D02*
X138073142Y-110038819D01*
X138073142Y-110038819D02*
X138311237Y-110038819D01*
X138311237Y-110038819D02*
X138454094Y-110086438D01*
X139263618Y-110991200D02*
X139168380Y-111038819D01*
X139168380Y-111038819D02*
X138977904Y-111038819D01*
X138977904Y-111038819D02*
X138882666Y-110991200D01*
X138882666Y-110991200D02*
X138835047Y-110895961D01*
X138835047Y-110895961D02*
X138835047Y-110515009D01*
X138835047Y-110515009D02*
X138882666Y-110419771D01*
X138882666Y-110419771D02*
X138977904Y-110372152D01*
X138977904Y-110372152D02*
X139168380Y-110372152D01*
X139168380Y-110372152D02*
X139263618Y-110419771D01*
X139263618Y-110419771D02*
X139311237Y-110515009D01*
X139311237Y-110515009D02*
X139311237Y-110610247D01*
X139311237Y-110610247D02*
X138835047Y-110705485D01*
X139739809Y-111038819D02*
X139739809Y-110372152D01*
X139739809Y-110562628D02*
X139787428Y-110467390D01*
X139787428Y-110467390D02*
X139835047Y-110419771D01*
X139835047Y-110419771D02*
X139930285Y-110372152D01*
X139930285Y-110372152D02*
X140025523Y-110372152D01*
X140263619Y-110372152D02*
X140501714Y-111038819D01*
X140501714Y-111038819D02*
X140739809Y-110372152D01*
X141263619Y-111038819D02*
X141168381Y-110991200D01*
X141168381Y-110991200D02*
X141120762Y-110943580D01*
X141120762Y-110943580D02*
X141073143Y-110848342D01*
X141073143Y-110848342D02*
X141073143Y-110562628D01*
X141073143Y-110562628D02*
X141120762Y-110467390D01*
X141120762Y-110467390D02*
X141168381Y-110419771D01*
X141168381Y-110419771D02*
X141263619Y-110372152D01*
X141263619Y-110372152D02*
X141406476Y-110372152D01*
X141406476Y-110372152D02*
X141501714Y-110419771D01*
X141501714Y-110419771D02*
X141549333Y-110467390D01*
X141549333Y-110467390D02*
X141596952Y-110562628D01*
X141596952Y-110562628D02*
X141596952Y-110848342D01*
X141596952Y-110848342D02*
X141549333Y-110943580D01*
X141549333Y-110943580D02*
X141501714Y-110991200D01*
X141501714Y-110991200D02*
X141406476Y-111038819D01*
X141406476Y-111038819D02*
X141263619Y-111038819D01*
X142596952Y-111038819D02*
X142263619Y-110562628D01*
X142025524Y-111038819D02*
X142025524Y-110038819D01*
X142025524Y-110038819D02*
X142406476Y-110038819D01*
X142406476Y-110038819D02*
X142501714Y-110086438D01*
X142501714Y-110086438D02*
X142549333Y-110134057D01*
X142549333Y-110134057D02*
X142596952Y-110229295D01*
X142596952Y-110229295D02*
X142596952Y-110372152D01*
X142596952Y-110372152D02*
X142549333Y-110467390D01*
X142549333Y-110467390D02*
X142501714Y-110515009D01*
X142501714Y-110515009D02*
X142406476Y-110562628D01*
X142406476Y-110562628D02*
X142025524Y-110562628D01*
X143549333Y-111038819D02*
X142977905Y-111038819D01*
X143263619Y-111038819D02*
X143263619Y-110038819D01*
X143263619Y-110038819D02*
X143168381Y-110181676D01*
X143168381Y-110181676D02*
X143073143Y-110276914D01*
X143073143Y-110276914D02*
X142977905Y-110324533D01*
D11*
%TO.C,ServoL1*%
X139336000Y-118618000D02*
X139336000Y-113428000D01*
X142096000Y-113428000D02*
X139336000Y-113428000D01*
X142096000Y-118618000D02*
X139336000Y-118618000D01*
X142096000Y-118618000D02*
X142096000Y-113428000D01*
X142096000Y-119888000D02*
X142096000Y-121268000D01*
X142096000Y-121268000D02*
X140716000Y-121268000D01*
%TO.C,LedL1*%
X165418000Y-125448000D02*
X165418000Y-126368000D01*
X165418000Y-126368000D02*
X167018000Y-126368000D01*
X165418000Y-130648000D02*
X165418000Y-131568000D01*
X165418000Y-131568000D02*
X173238000Y-131568000D01*
X167018000Y-125448000D02*
X167018000Y-126368000D01*
X167018000Y-126368000D02*
X167018000Y-126648000D01*
X167018000Y-130368000D02*
X165803000Y-130368000D01*
X167018000Y-130368000D02*
X167018000Y-130648000D01*
X167018000Y-130648000D02*
X165418000Y-130648000D01*
X167018000Y-131568000D02*
X167018000Y-130648000D01*
X168878000Y-128008000D02*
X173238000Y-128008000D01*
X168878000Y-129008000D02*
X168878000Y-128008000D01*
X169378000Y-126208000D02*
X170978000Y-126208000D01*
X169378000Y-127208000D02*
X169378000Y-126208000D01*
X169378000Y-129808000D02*
X169378000Y-130808000D01*
X169378000Y-130808000D02*
X170978000Y-130808000D01*
X170978000Y-126208000D02*
X170978000Y-127208000D01*
X170978000Y-127208000D02*
X169378000Y-127208000D01*
X170978000Y-129808000D02*
X169378000Y-129808000D01*
X170978000Y-129808000D02*
X173238000Y-129808000D01*
X170978000Y-130308000D02*
X173238000Y-130308000D01*
X170978000Y-130808000D02*
X170978000Y-129808000D01*
X173238000Y-125448000D02*
X165418000Y-125448000D01*
X173238000Y-129008000D02*
X168878000Y-129008000D01*
X173238000Y-131568000D02*
X173238000Y-125448000D01*
%TO.C,PWR1*%
X165418000Y-103858000D02*
X165418000Y-104778000D01*
X165418000Y-104778000D02*
X167018000Y-104778000D01*
X165418000Y-109058000D02*
X165418000Y-109978000D01*
X165418000Y-109978000D02*
X173238000Y-109978000D01*
X167018000Y-103858000D02*
X167018000Y-104778000D01*
X167018000Y-104778000D02*
X167018000Y-105058000D01*
X167018000Y-108778000D02*
X165803000Y-108778000D01*
X167018000Y-108778000D02*
X167018000Y-109058000D01*
X167018000Y-109058000D02*
X165418000Y-109058000D01*
X167018000Y-109978000D02*
X167018000Y-109058000D01*
X168878000Y-106418000D02*
X173238000Y-106418000D01*
X168878000Y-107418000D02*
X168878000Y-106418000D01*
X169378000Y-104618000D02*
X170978000Y-104618000D01*
X169378000Y-105618000D02*
X169378000Y-104618000D01*
X169378000Y-108218000D02*
X169378000Y-109218000D01*
X169378000Y-109218000D02*
X170978000Y-109218000D01*
X170978000Y-104618000D02*
X170978000Y-105618000D01*
X170978000Y-105618000D02*
X169378000Y-105618000D01*
X170978000Y-108218000D02*
X169378000Y-108218000D01*
X170978000Y-108218000D02*
X173238000Y-108218000D01*
X170978000Y-108718000D02*
X173238000Y-108718000D01*
X170978000Y-109218000D02*
X170978000Y-108218000D01*
X173238000Y-103858000D02*
X165418000Y-103858000D01*
X173238000Y-107418000D02*
X168878000Y-107418000D01*
X173238000Y-109978000D02*
X173238000Y-103858000D01*
%TO.C,Switch1*%
X165508000Y-94476000D02*
X165508000Y-95396000D01*
X165508000Y-95396000D02*
X167108000Y-95396000D01*
X165508000Y-99676000D02*
X165508000Y-100596000D01*
X165508000Y-100596000D02*
X173328000Y-100596000D01*
X167108000Y-94476000D02*
X167108000Y-95396000D01*
X167108000Y-95396000D02*
X167108000Y-95676000D01*
X167108000Y-99396000D02*
X165893000Y-99396000D01*
X167108000Y-99396000D02*
X167108000Y-99676000D01*
X167108000Y-99676000D02*
X165508000Y-99676000D01*
X167108000Y-100596000D02*
X167108000Y-99676000D01*
X168968000Y-97036000D02*
X173328000Y-97036000D01*
X168968000Y-98036000D02*
X168968000Y-97036000D01*
X169468000Y-95236000D02*
X171068000Y-95236000D01*
X169468000Y-96236000D02*
X169468000Y-95236000D01*
X169468000Y-98836000D02*
X169468000Y-99836000D01*
X169468000Y-99836000D02*
X171068000Y-99836000D01*
X171068000Y-95236000D02*
X171068000Y-96236000D01*
X171068000Y-96236000D02*
X169468000Y-96236000D01*
X171068000Y-98836000D02*
X169468000Y-98836000D01*
X171068000Y-98836000D02*
X173328000Y-98836000D01*
X171068000Y-99336000D02*
X173328000Y-99336000D01*
X171068000Y-99836000D02*
X171068000Y-98836000D01*
X173328000Y-94476000D02*
X165508000Y-94476000D01*
X173328000Y-98036000D02*
X168968000Y-98036000D01*
X173328000Y-100596000D02*
X173328000Y-94476000D01*
%TO.C,LedR1*%
X165418000Y-116304000D02*
X165418000Y-117224000D01*
X165418000Y-117224000D02*
X167018000Y-117224000D01*
X165418000Y-121504000D02*
X165418000Y-122424000D01*
X165418000Y-122424000D02*
X173238000Y-122424000D01*
X167018000Y-116304000D02*
X167018000Y-117224000D01*
X167018000Y-117224000D02*
X167018000Y-117504000D01*
X167018000Y-121224000D02*
X165803000Y-121224000D01*
X167018000Y-121224000D02*
X167018000Y-121504000D01*
X167018000Y-121504000D02*
X165418000Y-121504000D01*
X167018000Y-122424000D02*
X167018000Y-121504000D01*
X168878000Y-118864000D02*
X173238000Y-118864000D01*
X168878000Y-119864000D02*
X168878000Y-118864000D01*
X169378000Y-117064000D02*
X170978000Y-117064000D01*
X169378000Y-118064000D02*
X169378000Y-117064000D01*
X169378000Y-120664000D02*
X169378000Y-121664000D01*
X169378000Y-121664000D02*
X170978000Y-121664000D01*
X170978000Y-117064000D02*
X170978000Y-118064000D01*
X170978000Y-118064000D02*
X169378000Y-118064000D01*
X170978000Y-120664000D02*
X169378000Y-120664000D01*
X170978000Y-120664000D02*
X173238000Y-120664000D01*
X170978000Y-121164000D02*
X173238000Y-121164000D01*
X170978000Y-121664000D02*
X170978000Y-120664000D01*
X173238000Y-116304000D02*
X165418000Y-116304000D01*
X173238000Y-119864000D02*
X168878000Y-119864000D01*
X173238000Y-122424000D02*
X173238000Y-116304000D01*
%TO.C,A1*%
X144904000Y-91564000D02*
X144904000Y-94234000D01*
X144904000Y-96774000D02*
X144904000Y-135004000D01*
X144904000Y-135004000D02*
X149984000Y-135004000D01*
X147574000Y-94234000D02*
X144904000Y-94234000D01*
X147574000Y-96774000D02*
X144904000Y-96774000D01*
X147574000Y-96774000D02*
X147574000Y-94234000D01*
X147574000Y-96774000D02*
X147574000Y-132334000D01*
X147574000Y-132334000D02*
X144904000Y-132334000D01*
X149984000Y-127124000D02*
X157864000Y-127124000D01*
X149984000Y-137544000D02*
X149984000Y-127124000D01*
X157864000Y-127124000D02*
X157864000Y-137544000D01*
X157864000Y-137544000D02*
X149984000Y-137544000D01*
X160274000Y-94234000D02*
X160274000Y-132334000D01*
X160274000Y-94234000D02*
X162944000Y-94234000D01*
X160274000Y-132334000D02*
X162944000Y-132334000D01*
X162944000Y-91564000D02*
X144904000Y-91564000D01*
X162944000Y-135004000D02*
X157864000Y-135004000D01*
X162944000Y-135004000D02*
X162944000Y-91564000D01*
%TO.C,ServoR1*%
X139336000Y-106934000D02*
X139336000Y-101744000D01*
X142096000Y-101744000D02*
X139336000Y-101744000D01*
X142096000Y-106934000D02*
X139336000Y-106934000D01*
X142096000Y-106934000D02*
X142096000Y-101744000D01*
X142096000Y-108204000D02*
X142096000Y-109584000D01*
X142096000Y-109584000D02*
X140716000Y-109584000D01*
%TD*%
M02*
