M48
; DRILL file {KiCad 9.0.6} date 2025-12-22T16:53:49+0000
; FORMAT={-:-/ absolute / metric / decimal}
; #@! TF.CreationDate,2025-12-22T16:53:49+00:00
; #@! TF.GenerationSoftware,Kicad,Pcbnew,9.0.6
; #@! TF.FileFunction,Plated,1,2,PTH
FMAT,2
METRIC
; #@! TA.AperFunction,Plated,PTH,ComponentDrill
T1C0.750
; #@! TA.AperFunction,Plated,PTH,ComponentDrill
T2C1.000
%
G90
G05
T1
X166.878Y-105.918
X166.878Y-107.918
X166.878Y-118.364
X166.878Y-120.364
X166.878Y-127.508
X166.878Y-129.508
X166.968Y-96.536
X166.968Y-98.536
T2
X140.716Y-103.124
X140.716Y-105.664
X140.716Y-108.204
X140.716Y-114.808
X140.716Y-117.348
X140.716Y-119.888
X146.304Y-95.504
X146.304Y-98.044
X146.304Y-100.584
X146.304Y-103.124
X146.304Y-105.664
X146.304Y-108.204
X146.304Y-110.744
X146.304Y-113.284
X146.304Y-115.824
X146.304Y-118.364
X146.304Y-120.904
X146.304Y-123.444
X146.304Y-125.984
X146.304Y-128.524
X146.304Y-131.064
X161.544Y-95.504
X161.544Y-98.044
X161.544Y-100.584
X161.544Y-103.124
X161.544Y-105.664
X161.544Y-108.204
X161.544Y-110.744
X161.544Y-113.284
X161.544Y-115.824
X161.544Y-118.364
X161.544Y-120.904
X161.544Y-123.444
X161.544Y-125.984
X161.544Y-128.524
X161.544Y-131.064
M30
